<svg viewBox="0 0 12 12" width="60px" height="60px" xmlns="http://www.w3.org/2000/svg"><path fill-rule="evenodd" d="M 0,0 3,0 3,1 4,1 4,0 8,0 8,1 9,1 9,0 12,0 12,4 11,4 11,5 12,5 12,12 0,12 0,5 1,5 1,4 0,4z M 5,5 7,5 7,6 5,6z" fill="#BD6BBD"/><path fill-rule="evenodd" d="M 1,1 2,1 2,2 4,2 4,3 5,3 5,4 2,4 2,3 1,3z" fill="#ffffff"/><path fill-rule="evenodd" d="M 5,1 7,1 7,2 5,2z" fill="#ffffff"/><path fill-rule="evenodd" d="M 10,1 11,1 11,3 10,3 10,4 7,4 7,3 8,3 8,2 10,2z" fill="#ffffff"/><path fill-rule="evenodd" d="M 3,5 4,5 4,6 3,6z" fill="#ffffff"/><path fill-rule="evenodd" d="M 8,5 9,5 9,6 8,6z" fill="#ffffff"/><path fill-rule="evenodd" d="M 1,6 2,6 2,7 1,7z" fill="#ffffff"/><path fill-rule="evenodd" d="M 10,6 11,6 11,7 10,7z" fill="#ffffff"/><path fill-rule="evenodd" d="M 2,7 4,7 4,8 3,8 3,10 2,10 2,9 1,9 1,8 2,8z" fill="#ffffff"/><path fill-rule="evenodd" d="M 5,7 7,7 7,8 5,8z" fill="#ffffff"/><path fill-rule="evenodd" d="M 8,7 10,7 10,8 11,8 11,9 10,9 10,10 9,10 9,8 8,8z" fill="#ffffff"/><path fill-rule="evenodd" d="M 1,10 2,10 2,11 1,11z" fill="#ffffff"/><path fill-rule="evenodd" d="M 3,10 9,10 9,11 3,11z" fill="#ffffff"/><path fill-rule="evenodd" d="M 10,10 11,10 11,11 10,11z" fill="#ffffff"/></svg>